<svg width="276" height="276" viewBox="0 0 276 276" fill="none" xmlns="http://www.w3.org/2000/svg" class="h-6 w-6">
<g clip-path="url(#clip0_3_2)">
<rect width="276" height="276" rx="40" fill="#DC2626"/>
<path fill-rule="evenodd" clip-rule="evenodd" d="M94 60.88C94 54.8443 98.9263 50 104.943 50H170.313C176.33 50 181.208 54.8929 181.208 60.9286L181.257 107.071C181.257 113.107 176.379 118 170.362 118C151.8 118 123.554 118 104.992 118C98.9748 118 94.0485 113.058 94.0485 107.023L94 60.88Z" fill="white"/>
<path fill-rule="evenodd" clip-rule="evenodd" d="M32 168.88C32 162.844 36.9263 158 42.9434 158H108.313C114.33 158 119.208 162.893 119.208 168.929L119.257 215.071C119.257 221.107 114.379 226 108.362 226C89.8 226 61.5537 226 42.9919 226C36.9748 226 32.0485 221.058 32.0485 215.023L32 168.88Z" fill="white"/>
<path fill-rule="evenodd" clip-rule="evenodd" d="M156 168.88C156 162.844 160.926 158 166.943 158H232.313C238.33 158 243.208 162.893 243.208 168.929L243.257 215.071C243.257 221.107 238.379 226 232.362 226C213.8 226 185.554 226 166.992 226C160.975 226 156.048 221.058 156.048 215.023L156 168.88Z" fill="white"/>
<path d="M134.142 109.071L141.213 102L226.066 186.853L218.995 193.924L134.142 109.071Z" fill="white"/>
<path d="M133.853 102L140.924 109.071L56.0711 193.924L49 186.853L133.853 102Z" fill="white"/>
</g>
<defs>
<clipPath id="clip0_3_2">
<rect width="276" height="276" fill="white"/>
</clipPath>
</defs>
</svg>
